<?xml version="1.0" encoding="UTF-8"?>
<svg id="_图层_2" data-name="图层_2" xmlns="http://www.w3.org/2000/svg" viewBox="0 0 1920 1080">
  <defs>
    <style>
      .cls-1, .cls-2, .cls-3 {
        fill: #59533d;
      }

      .cls-2 {
        stroke-miterlimit: 11.34;
        stroke-width: .75px;
      }

      .cls-2, .cls-4, .cls-3 {
        stroke: #59533d;
      }

      .cls-4 {
        fill: none;
      }

      .cls-4, .cls-3 {
        stroke-miterlimit: 10;
      }
    </style>
  </defs>
  <g id="Sun">
    <g id="layer1">
      <path id="path1" class="cls-2" d="M1131.2,676.03l-5.16.23c-.13,0-.25.05-.36.12l-4.22,2.98c-.43.31-1.03.01-1.06-.52l-.23-5.16c0-.13-.05-.25-.12-.36l-2.98-4.22c-.31-.43-.01-1.03.52-1.06l5.16-.23c.13,0,.25-.05.36-.12l4.22-2.98c.43-.31,1.03-.01,1.06.52l.23,5.16c0,.13.05.25.12.36l2.98,4.22c.31.43.01,1.03-.52,1.06Z"/>
    </g>
  </g>
  <ellipse id="MerO" class="cls-4" cx="1124.5" cy="672.5" rx="30" ry="11"/>
  <ellipse id="VenO" class="cls-4" cx="1129" cy="675.5" rx="48.5" ry="18"/>
  <ellipse id="EarO" class="cls-4" cx="1128.44" cy="675.99" rx="23.51" ry="67" transform="translate(385.88 1761.78) rotate(-86.56)"/>
  <ellipse id="MarO" class="cls-4" cx="1137.5" cy="675.5" rx="102" ry="35"/>
  <circle id="Mars" class="cls-3" cx="1238" cy="681" r="3.5"/>
  <path id="JupO" class="cls-4" d="M1415.47,803.47c-69.16,26.06-170.81,37.48-276.79,31.1-194.61-11.71-351.2-80.28-346.89-151.89s167.99-120.9,362.6-109.19c194.61,11.72,351.2,80.28,346.89,151.89-1.6,26.54-25.16,51.14-67.51,70.49"/>
  <circle id="Jup" class="cls-4" cx="1425" cy="800" r="9.5"/>
  <ellipse id="PalO" class="cls-4" cx="1085.28" cy="668.81" rx="118.33" ry="187.68" transform="translate(-63.12 1222.25) rotate(-57.37)"/>
  <ellipse id="CerO" class="cls-4" cx="1119.51" cy="689.09" rx="185" ry="85.91" transform="translate(-68.73 126.74) rotate(-6.29)"/>
  <path id="SatO" class="cls-4" d="M487.36,880.18c-33.79-38.64-49.96-78.91-47.58-118.46,9.83-163.4,334.25-278.81,718.66-255.68,384.41,23.14,692.64,176.63,682.81,340.03-9.83,163.4-334.25,278.81-718.66,255.68-270.49-16.28-513.8-97.74-623.19-208.63"/>
  <circle id="Sat" class="cls-4" cx="493" cy="887" r="8.5"/>
  <g id="SatRing">
    <path class="cls-1" d="M498.07,879.53l.36.93c6.69-2.6,11.86-3.52,12.59-2.01.48.99-1.04,2.85-3.89,5.05s-7.04,4.74-11.88,7.1-9.42,4.1-12.91,4.99-5.89.95-6.37-.04c-.7-1.44,2.83-4.71,8.54-8.2l-.52-.85c-4.76,2.91-10.17,6.92-8.91,9.49.74,1.52,3.13,1.7,7.52.57,3.7-.95,8.36-2.75,13.1-5.06,4.74-2.31,9.02-4.87,12.05-7.2,3.59-2.77,4.92-4.76,4.18-6.28-1.31-2.69-8.26-.66-13.85,1.52"/>
  </g>
  <ellipse id="NepO" class="cls-4" cx="1042" cy="823.5" rx="1664.5" ry="452"/>
  <ellipse id="UraO" class="cls-4" cx="1073.5" cy="850.5" rx="1320" ry="400"/>
  <g id="PluO">
    <path class="cls-1" d="M1604.28,141.7c186.19,0,362.95,11.99,525.37,35.65,160.2,23.33,302.74,57.45,423.65,101.41,122.21,44.43,219.36,97.85,288.75,158.77,71.67,62.93,112.33,132.75,120.85,207.53,5.24,45.97-1.88,93.33-21.17,140.75-18.81,46.27-49.41,93.17-90.96,139.39-40.82,45.42-92.6,90.64-153.9,134.42-60.74,43.37-131.36,85.7-209.88,125.8-78.54,40.11-165.63,78.32-258.87,113.57-94.14,35.6-195.36,68.49-300.86,97.77-219.52,60.92-454.95,105.95-699.76,133.85-179.9,20.5-358.68,30.89-531.38,30.89-186.21,0-362.99-11.99-525.42-35.65-160.22-23.33-302.77-57.45-423.69-101.4-122.22-44.43-219.38-97.84-288.78-158.77-71.68-62.93-112.34-132.75-120.86-207.54-5.24-45.97,1.88-93.33,21.17-140.75,18.81-46.27,49.41-93.17,90.96-139.39,40.82-45.42,92.6-90.64,153.9-134.42,60.74-43.37,131.36-85.7,209.88-125.8,78.54-40.11,165.63-78.32,258.87-113.57,94.14-35.6,195.36-68.49,300.86-97.77,219.52-60.92,454.95-105.96,699.76-133.85,179.85-20.49,358.63-30.88,531.38-30.89h.13M1604.16,140.7c-169.24,0-347.83,9.97-531.49,30.9C70.95,285.73-706.41,682.7-663.62,1058.25c34.94,306.7,605.93,504.24,1359.75,504.24,169.24,0,347.83-9.97,531.49-30.9,1001.72-114.13,1779.08-511.1,1736.29-886.66-34.94-306.7-605.93-504.27-1359.75-504.24h0Z"/>
  </g>
  <circle class="cls-3" cx="1194.5" cy="677.5" r="4"/>
  <circle class="cls-3" cx="1172.5" cy="683.5" r="3"/>
  <circle class="cls-3" cx="1136" cy="662" r="2.5"/>
  <circle class="cls-3" cx="937" cy="718" r="2.5"/>
  <circle class="cls-3" cx="959.5" cy="539.5" r="2"/>
</svg>