<svg id="图层_1" data-name="图层 1" xmlns="http://www.w3.org/2000/svg" viewBox="0 0 202.31 200.02"><defs><style>.cls-1,.cls-2{fill:none;stroke:currentColor;stroke-miterlimit:10;}.cls-2{stroke-width:0.75px;}</style></defs><line class="cls-1" x1="191" y1="160.34" x2="191" y2="40.8"/><line class="cls-1" x1="160" y1="190.31" x2="41" y2="190.31"/><line class="cls-1" x1="11" y1="160.31" x2="11" y2="40.31"/><line class="cls-1" x1="160.51" y1="10.31" x2="41" y2="10.31"/><polyline class="cls-1" points="189.63 189.81 190.21 189.81 190.5 189.81 190.79 189.81 191 189.81 191 189.44"/><path class="cls-1" d="M194.51,46c0,.16,0,.33,0,.5a30,30,0,0,0,30,30h.5" transform="translate(-34 -35.69)"/><path class="cls-1" d="M45,76A30,30,0,0,0,75,46" transform="translate(-34 -35.69)"/><path class="cls-1" d="M45,196a30,30,0,0,1,30,30" transform="translate(-34 -35.69)"/><path class="cls-1" d="M194,226a30,30,0,0,1,30-30c.34,0,.67,0,1,0" transform="translate(-34 -35.69)"/><rect class="cls-1" x="217.5" y="39.5" width="15" height="15" transform="translate(-1.33 137.18) rotate(-45)"/><line class="cls-2" x1="190.5" y1="182.81" x2="190.5" y2="197.81"/><line class="cls-2" x1="184" y1="194.06" x2="197" y2="186.56"/><line class="cls-2" x1="186.75" y1="196.81" x2="194.25" y2="183.82"/><line class="cls-2" x1="194.25" y1="196.81" x2="186.75" y2="183.82"/><line class="cls-2" x1="197" y1="194.06" x2="184" y2="186.56"/><line class="cls-2" x1="198" y1="190.31" x2="183" y2="190.31"/><circle class="cls-1" cx="10.5" cy="10.81" r="10"/><line class="cls-1" x1="0.5" y1="10.81" x2="20.5" y2="10.81"/><line class="cls-1" x1="10.5" y1="20.31" x2="10.5" y2="0.31"/><path class="cls-1" d="M44.49,56.49a12.36,12.36,0,0,1,0-20" transform="translate(-34 -35.69)"/><path class="cls-1" d="M44.51,56.49a12.36,12.36,0,0,0,0-20" transform="translate(-34 -35.69)"/><rect class="cls-1" x="37.27" y="218.97" width="15" height="15" rx="4.52" transform="translate(-181.03 62.31) rotate(-45)"/></svg>